<svg xmlns="http://www.w3.org/2000/svg" viewBox="0 0 512 512">
  <defs>
    <linearGradient id="bg" x1="0%" y1="0%" x2="100%" y2="100%">
      <stop offset="0%" style="stop-color:#0f1419"/>
      <stop offset="100%" style="stop-color:#0a0f14"/>
    </linearGradient>
    <linearGradient id="accent" x1="0%" y1="0%" x2="100%" y2="100%">
      <stop offset="0%" style="stop-color:#00d4aa"/>
      <stop offset="100%" style="stop-color:#00b4d8"/>
    </linearGradient>
  </defs>

  <!-- Background -->
  <rect width="512" height="512" rx="96" fill="url(#bg)"/>

  <!-- Outer ring -->
  <circle cx="256" cy="256" r="140" fill="none" stroke="url(#accent)" stroke-width="3" opacity="0.3"/>

  <!-- Inner ring -->
  <circle cx="256" cy="256" r="100" fill="none" stroke="url(#accent)" stroke-width="4" opacity="0.5"/>

  <!-- Core circle -->
  <circle cx="256" cy="256" r="60" fill="url(#accent)" opacity="0.9"/>

  <!-- Neural nodes -->
  <circle cx="256" cy="116" r="12" fill="#00d4aa" opacity="0.7"/>
  <circle cx="256" cy="396" r="12" fill="#00d4aa" opacity="0.7"/>
  <circle cx="116" cy="256" r="12" fill="#00d4aa" opacity="0.7"/>
  <circle cx="396" cy="256" r="12" fill="#00d4aa" opacity="0.7"/>

  <!-- Neural connections -->
  <line x1="256" y1="156" x2="256" y2="128" stroke="#00d4aa" stroke-width="2" opacity="0.5"/>
  <line x1="256" y1="384" x2="256" y2="356" stroke="#00d4aa" stroke-width="2" opacity="0.5"/>
  <line x1="156" y1="256" x2="128" y2="256" stroke="#00d4aa" stroke-width="2" opacity="0.5"/>
  <line x1="384" y1="256" x2="356" y2="256" stroke="#00d4aa" stroke-width="2" opacity="0.5"/>

  <!-- Microphone icon in center -->
  <g transform="translate(256, 256)">
    <path d="M0 -24c8.3 0 15 6.7 15 15v18c0 8.3-6.7 15-15 15s-15-6.7-15-15v-18c0-8.3 6.7-15 15-15z" fill="#0a0f14"/>
    <path d="M-25 9c0 13.8 11.2 25 25 25s25-11.2 25-25" fill="none" stroke="#0a0f14" stroke-width="5" stroke-linecap="round"/>
    <line x1="0" y1="34" x2="0" y2="48" stroke="#0a0f14" stroke-width="5" stroke-linecap="round"/>
  </g>
</svg>
